# xmcd
#
# Track frame offsets:
#	150
#	28650
#	57000
#	81675
#	103650
#
# Disc length: 1716 seconds
#
# Revision: 1
# Processed by: cddbd v1.5.1PL0 Copyright (c) Steve Scherf et al.
# Submitted via: CDex 1.50Beta5
#
DISCID=3c06b205
DTITLE=aiko - astral box
DYEAR=1900
DGENRE=Pop
TTITLE0=DO YOU THINK ABOUT ME?
TTITLE1=キスでおこして
TTITLE2=HOW TO LOVE
TTITLE3=POWER OF LOVE
TTITLE4=光のさすあしもと
EXTD=
EXTT0=
EXTT1=
EXTT2=
EXTT3=
EXTT4=
PLAYORDER=
